HIERARCHY
ROOT Hips
{
 OFFSET 0.000000 0.000000 0.000000
 CHANNELS 6 Xposition Yposition Zposition Yrotation Xrotation Zrotation
 JOINT Chest
 {
  OFFSET 0.000000 9.585900 0.002600
  CHANNELS 3 Yrotation Xrotation Zrotation
  JOINT Chest2
  {
   OFFSET 0.000000 9.601200 -0.005300
   CHANNELS 3 Yrotation Xrotation Zrotation
   JOINT Chest3
   {
    OFFSET 0.000000 9.561800 0.000000
    CHANNELS 3 Yrotation Xrotation Zrotation
    JOINT Chest4
    {
     OFFSET 0.000000 9.552100 0.000000
     CHANNELS 3 Yrotation Xrotation Zrotation
     JOINT Neck
     {
      OFFSET 0.000000 14.453000 0.000000
      CHANNELS 3 Yrotation Xrotation Zrotation
      JOINT Head
      {
       OFFSET 0.000000 8.936500 -0.011300
       CHANNELS 3 Yrotation Xrotation Zrotation
       End Site
       {
        OFFSET 0.000000 17.073600 -0.006000
       }
      }
     }
     JOINT RightCollar
     {
      OFFSET -2.921100 9.558500 0.000000
      CHANNELS 3 Yrotation Xrotation Zrotation
      JOINT RightShoulder
      {
       OFFSET -13.519700 0.000000 0.000000
       CHANNELS 3 Yrotation Xrotation Zrotation
       JOINT RightElbow
       {
        OFFSET 0.000000 -29.696600 0.000000
        CHANNELS 3 Yrotation Xrotation Zrotation
        JOINT RightWrist
        {
         OFFSET 0.000000 -24.004700 0.000000
         CHANNELS 3 Yrotation Xrotation Zrotation
         End Site
         {
          OFFSET 0.000000 -17.728500 0.000000
         }
        }
       }
      }
     }
     JOINT LeftCollar
     {
      OFFSET 2.921100 9.558500 0.000000
      CHANNELS 3 Yrotation Xrotation Zrotation
      JOINT LeftShoulder
      {
       OFFSET 13.519700 0.000000 0.000000
       CHANNELS 3 Yrotation Xrotation Zrotation
       JOINT LeftElbow
       {
        OFFSET 0.000000 -29.696600 0.000000
        CHANNELS 3 Yrotation Xrotation Zrotation
        JOINT LeftWrist
        {
         OFFSET 0.000000 -24.004700 0.000000
         CHANNELS 3 Yrotation Xrotation Zrotation
         End Site
         {
          OFFSET 0.000000 -17.728500 0.000000
         }
        }
       }
      }
     }
    }
   }
  }
 }
 JOINT RightHip
 {
  OFFSET -7.771700 -0.012900 -0.001300
  CHANNELS 3 Yrotation Xrotation Zrotation
  JOINT RightKnee
  {
   OFFSET 0.000000 -40.869800 0.001200
   CHANNELS 3 Yrotation Xrotation Zrotation
   JOINT RightAnkle
   {
    OFFSET 0.000000 -39.717900 0.002100
    CHANNELS 3 Yrotation Xrotation Zrotation
    JOINT RightToe
    {
     OFFSET 0.000000 -4.965400 11.033500
     CHANNELS 3 Yrotation Xrotation Zrotation
     End Site
     {
      OFFSET 0.000000 -1.423100 5.872300
     }
    }
   }
  }
 }
 JOINT LeftHip
 {
  OFFSET 7.771700 -0.012900 -0.001300
  CHANNELS 3 Yrotation Xrotation Zrotation
  JOINT LeftKnee
  {
   OFFSET 0.000000 -40.869800 0.001200
   CHANNELS 3 Yrotation Xrotation Zrotation
   JOINT LeftAnkle
   {
    OFFSET 0.000000 -39.717900 0.002100
    CHANNELS 3 Yrotation Xrotation Zrotation
    JOINT LeftToe
    {
     OFFSET 0.000000 -4.965400 11.033500
     CHANNELS 3 Yrotation Xrotation Zrotation
     End Site
     {
      OFFSET 0.000000 -1.423100 5.872300
     }
    }
   }
  }
 }
}
MOTION
Frames: 8
Frame Time: 0.008333
-25.979854 57.902828 13.486415 178.110554 -48.839466 -3.507076 3.283335 22.600988 3.501278 1.544806 12.993818 1.745582 2.006258 16.227208 2.258045 1.557711 12.909117 1.708039 1.657297 16.184611 4.294867 1.526259 -6.019723 7.201978 6.865329 1.815578 1.933536 1.444291 -39.581488 -1.591190 -53.140241 -11.029434 53.530981 -16.735501 -13.166715 -16.360264 -9.735583 -0.005516 0.750641 -9.982770 -36.137392 -0.486608 46.636741 -12.985811 -47.795373 24.275759 -15.221277 4.832889 4.524043 -22.447998 -3.478553 -34.871502 72.954878 -38.225094 5.418547 -12.041734 11.890433 0.062384 -0.084672 0.003770 -7.549088 -21.186314 5.675926 89.339309 82.436181 88.490444 0.787005 -18.057705 -17.839716 -0.021023 0.417065 0.028158
-25.971872 57.908870 13.496416 178.049327 -48.942544 -3.494246 3.359643 22.592118 3.530578 1.558153 12.961298 1.730866 2.017320 16.221172 2.246520 1.552268 12.989937 1.748605 1.616068 16.060541 4.211458 1.487391 -5.921335 7.276668 6.825060 1.779342 1.903123 1.359009 -39.408630 -1.577943 -52.964978 -10.971098 53.936122 -16.758948 -13.134421 -16.687103 -9.653936 -0.007141 0.792832 -9.695858 -35.842580 -0.643542 46.268074 -12.810587 -48.316881 24.366731 -15.383274 5.562291 4.516831 -22.348754 -3.444260 -34.772634 72.942332 -38.108522 5.421721 -12.023334 11.838774 0.078261 -0.082055 0.017083 -7.494670 -21.066716 5.719192 89.211780 82.459532 88.342908 0.817250 -18.100546 -17.809355 -0.055920 0.383819 0.003867
-25.972215 57.915439 13.505224 178.051358 -49.047521 -3.474027 3.368197 22.595767 3.498497 1.557643 13.008813 1.738674 2.037939 16.138669 2.208057 1.550559 13.066040 1.787247 1.585820 15.993480 4.166093 1.443755 -5.877880 7.313104 6.779973 1.735803 1.871996 1.287891 -39.223831 -1.572628 -52.775370 -10.938962 54.345271 -16.779116 -13.095132 -17.009101 -9.571012 -0.015245 0.834650 -9.406565 -35.546841 -0.795617 45.895786 -12.627354 -48.882754 24.468398 -15.570604 6.305189 4.484319 -22.239527 -3.466604 -34.661731 72.938445 -38.006049 5.439412 -12.039853 11.814637 0.068114 -0.057681 0.015232 -7.459033 -20.942230 5.714140 89.050707 82.468072 88.133560 0.816745 -18.174833 -17.759778 -0.081852 0.381549 -0.010673
-25.968173 57.916102 13.519604 178.077272 -49.100559 -3.494482 3.367223 22.551247 3.491161 1.553099 13.053461 1.741957 2.053621 16.090415 2.184780 1.555954 13.052735 1.775558 1.564463 16.013524 4.175365 1.399369 -5.860170 7.328745 6.729979 1.741445 1.876044 1.230550 -39.032051 -1.571078 -52.580736 -10.942023 54.758912 -16.787346 -13.035948 -17.343962 -9.494180 0.030676 0.901285 -9.104776 -35.251541 -0.940394 45.529888 -12.446227 -49.495034 24.582909 -15.763941 7.075685 4.423840 -22.184119 -3.467086 -34.550422 72.933606 -37.903629 5.459239 -12.069625 11.791818 0.053249 -0.019732 0.009838 -7.462056 -20.871864 5.723056 88.903036 82.476161 87.972785 0.835114 -18.273597 -17.766689 -0.081324 0.407490 -0.007235
-25.962221 57.916754 13.533737 178.099053 -49.150285 -3.518466 3.375306 22.506909 3.497103 1.554906 13.047001 1.729580 2.066030 16.097629 2.181741 1.556116 13.040967 1.764841 1.544899 16.033315 4.180343 1.351489 -5.844651 7.340955 6.678232 1.736885 1.867945 1.186784 -38.887380 -1.514886 -52.364755 -10.997767 55.098117 -16.781228 -12.955431 -17.708427 -9.421275 0.063271 0.966532 -8.790639 -34.959641 -1.073673 45.167770 -12.286531 -50.150376 24.715579 -15.953052 7.898459 4.365492 -22.133952 -3.461316 -34.459653 72.926858 -37.802793 5.464348 -12.102104 11.744241 0.043678 0.006273 0.017561 -7.470731 -20.813689 5.731561 88.831997 82.475208 87.889187 0.865716 -18.336950 -17.767368 -0.100049 0.424342 -0.014064
-25.957760 57.929390 13.536461 178.105893 -49.292893 -3.515103 3.387890 22.603798 3.495527 1.587428 12.936511 1.702470 2.047760 16.207643 2.213666 1.587654 12.938648 1.693627 1.514074 16.103669 4.228767 1.300798 -5.831595 7.350932 6.597187 1.771710 1.899839 1.139449 -38.662712 -1.531437 -52.138624 -11.078532 55.549494 -16.768529 -12.859592 -18.108418 -9.379081 0.147065 1.068806 -8.474981 -34.675264 -1.190540 44.805143 -12.164021 -50.843215 24.856006 -16.133631 8.793172 4.328993 -21.988311 -3.463563 -34.314443 72.934672 -37.651895 5.448361 -12.103387 11.698088 0.051199 0.017269 0.024939 -7.444707 -20.651339 5.725534 88.664718 82.477734 87.693465 0.858452 -18.364527 -17.734791 -0.117100 0.382285 -0.028373
-25.952386 57.939275 13.540429 178.123193 -49.410022 -3.520404 3.392799 22.676884 3.493463 1.603235 12.896983 1.689898 2.042729 16.248955 2.224782 1.611379 12.886325 1.649255 1.483320 16.127028 4.243778 1.249646 -5.821238 7.359529 6.516662 1.761693 1.890112 1.121279 -38.429887 -1.563882 -51.900035 -11.205438 56.006783 -16.749716 -12.757635 -18.538018 -9.332915 0.177088 1.155954 -8.176988 -34.402188 -1.285615 44.437674 -12.084846 -51.550117 24.987779 -16.300858 9.751659 4.286604 -21.869685 -3.464435 -34.177901 72.958205 -37.511212 5.420680 -12.128653 11.652574 0.067240 0.022134 0.032878 -7.427707 -20.517067 5.724999 88.533387 82.486929 87.538636 0.853075 -18.400576 -17.707261 -0.127576 0.328277 -0.041664
-25.946721 57.946633 13.545030 178.136852 -49.504385 -3.519913 3.403976 22.687259 3.483987 1.591985 12.960082 1.697825 2.085834 16.136625 2.165982 1.605485 12.944393 1.679189 1.465697 16.162560 4.275605 1.197672 -5.844222 7.333167 6.441365 1.734531 1.860323 1.132040 -38.214432 -1.591556 -51.649322 -11.379483 56.436888 -16.718582 -12.660473 -18.992513 -9.282328 0.181137 1.233228 -7.917679 -34.134151 -1.348854 44.052226 -12.057299 -52.246889 25.109415 -16.457392 10.744945 4.248286 -21.773907 -3.466621 -34.016271 72.993315 -37.350641 5.377524 -12.180238 11.602810 0.092453 0.010579 0.043999 -7.412480 -20.401667 5.719887 88.404225 82.498936 87.382346 0.875442 -18.467896 -17.684695 -0.147457 0.326003 -0.053026
